<svg width="22" height="22" viewBox="0 0 22 22" fill="none" xmlns="http://www.w3.org/2000/svg">
<g clip-path="url(#clip0_390_4226)">
<rect y="0.25" width="21.5" height="21.5" rx="10.75" fill="#4AB5E3" fill-opacity="0.1"/>
<path d="M10.7497 21.75C4.56523 21.75 -0.448242 16.937 -0.448242 11C-0.448242 5.06294 4.56523 0.25 10.7497 0.25C16.9341 0.25 21.9476 5.06294 21.9476 11C21.9476 16.937 16.9341 21.75 10.7497 21.75ZM10.7497 19.6C15.6973 19.6 19.708 15.7497 19.708 11C19.708 6.25035 15.6973 2.4 10.7497 2.4C5.80212 2.4 1.79134 6.25035 1.79134 11C1.79134 15.7497 5.80212 19.6 10.7497 19.6ZM9.63279 15.3L6.27051 11.8958L7.61426 10.7392L9.63279 12.2595L13.8851 8.3125L15.6768 9.65625L9.63279 15.3Z" fill="#4AB5E3"/>
</g>
<defs>
<clipPath id="clip0_390_4226">
<rect y="0.25" width="21.5" height="21.5" rx="10.75" fill="white"/>
</clipPath>
</defs>
</svg>
