<svg width="25" height="25" viewBox="0 0 25 25" fill="none" xmlns="http://www.w3.org/2000/svg">
<path d="M12.4317 9.89795C10.7743 9.89795 9.43164 11.241 9.43164 12.8979C9.43164 14.5552 10.7748 15.8979 12.4317 15.8979C14.089 15.8979 15.4317 14.5548 15.4317 12.8979C15.4317 11.2406 14.0886 9.89795 12.4317 9.89795ZM12.4317 7.89795C15.1921 7.89795 17.4317 10.135 17.4317 12.8979C17.4317 15.6584 15.1946 17.8979 12.4317 17.8979C9.67117 17.8979 7.43164 15.6608 7.43164 12.8979C7.43164 10.1375 9.66874 7.89795 12.4317 7.89795ZM18.9317 7.6471C18.9317 8.33721 18.3709 8.89712 17.6817 8.89712C16.9916 8.89712 16.4317 8.33635 16.4317 7.6471C16.4317 6.95785 16.9924 6.39795 17.6817 6.39795C18.37 6.39708 18.9317 6.95785 18.9317 7.6471ZM12.4317 4.89795C9.95716 4.89795 9.55384 4.9045 8.40293 4.95575C7.61881 4.99256 7.09319 5.09802 6.60482 5.28762C6.17082 5.45594 5.85775 5.65693 5.52418 5.9905C5.18933 6.32535 4.9887 6.63758 4.82106 7.07178C4.63102 7.56127 4.52559 8.08606 4.48944 8.8691C4.43769 9.97315 4.43164 10.359 4.43164 12.8979C4.43164 15.3724 4.43819 15.7758 4.48943 16.9265C4.52626 17.7104 4.63186 18.2367 4.821 18.7239C4.98976 19.1586 5.19116 19.4723 5.52312 19.8043C5.85929 20.14 6.17245 20.3413 6.60253 20.5073C7.09685 20.6984 7.62214 20.804 8.40278 20.8401C9.50684 20.8918 9.89269 20.8979 12.4317 20.8979C14.9062 20.8979 15.3095 20.8913 16.4603 20.8401C17.2424 20.8034 17.7692 20.6975 18.2577 20.5085C18.6911 20.3402 19.0059 20.1381 19.3381 19.8064C19.6743 19.4697 19.8752 19.1574 20.0414 18.7262C20.232 18.2337 20.3378 17.7077 20.3739 16.9268C20.4256 15.8227 20.4317 15.4368 20.4317 12.8979C20.4317 10.4235 20.4251 10.0202 20.3739 8.86932C20.3371 8.08701 20.2312 7.55944 20.042 7.07113C19.8741 6.63833 19.6724 6.3243 19.3391 5.9905C19.0037 5.6551 18.6923 5.45488 18.2578 5.28737C17.7687 5.09749 17.2431 4.99191 16.4605 4.95576C15.3565 4.904 14.9706 4.89795 12.4317 4.89795ZM12.4317 2.89795C15.1483 2.89795 15.4875 2.90795 16.5542 2.95795C17.6183 3.00712 18.3442 3.17545 18.9817 3.42295C19.6408 3.67712 20.1975 4.02045 20.7533 4.57628C21.3083 5.13212 21.6517 5.69045 21.9067 6.34795C22.1533 6.98462 22.3217 7.71128 22.3717 8.77545C22.4192 9.84212 22.4317 10.1813 22.4317 12.8979C22.4317 15.6146 22.4217 15.9537 22.3717 17.0204C22.3225 18.0846 22.1533 18.8104 21.9067 19.4479C21.6525 20.1071 21.3083 20.6637 20.7533 21.2196C20.1975 21.7746 19.6383 22.118 18.9817 22.3729C18.3442 22.6196 17.6183 22.788 16.5542 22.8379C15.4875 22.8855 15.1483 22.8979 12.4317 22.8979C9.71497 22.8979 9.3758 22.8879 8.30914 22.8379C7.24497 22.7887 6.51997 22.6196 5.88164 22.3729C5.2233 22.1187 4.6658 21.7746 4.10997 21.2196C3.55414 20.6637 3.21164 20.1046 2.95664 19.4479C2.70914 18.8104 2.54164 18.0846 2.49164 17.0204C2.44414 15.9537 2.43164 15.6146 2.43164 12.8979C2.43164 10.1813 2.44164 9.84212 2.49164 8.77545C2.5408 7.71045 2.70914 6.98545 2.95664 6.34795C3.2108 5.68962 3.55414 5.13212 4.10997 4.57628C4.6658 4.02045 5.22414 3.67795 5.88164 3.42295C6.51914 3.17545 7.24414 3.00795 8.30914 2.95795C9.3758 2.91045 9.71497 2.89795 12.4317 2.89795Z" fill="black"/>
</svg>
