<svg width="19" height="17" viewBox="0 0 19 17" fill="none" xmlns="http://www.w3.org/2000/svg">
<path d="M8.69459 0.829759C9.05136 -0.265518 10.6009 -0.265518 10.9565 0.829759L12.229 4.74469C12.3067 4.98312 12.4578 5.19086 12.6607 5.33824C12.8637 5.48561 13.108 5.56507 13.3587 5.56526H17.4758C18.6282 5.56526 19.1063 7.0399 18.1751 7.71775L14.8453 10.1366C14.6419 10.2841 14.4905 10.4922 14.4128 10.7311C14.335 10.9699 14.3349 11.2273 14.4124 11.4662L15.6849 15.3811C16.0416 16.4764 14.787 17.3885 13.8535 16.7107L10.5236 14.2918C10.3205 14.1443 10.0759 14.0649 9.82495 14.0649C9.57395 14.0649 9.32939 14.1443 9.12628 14.2918L5.79645 16.7107C4.86409 17.3885 3.61065 16.4764 3.96623 15.3811L5.2387 11.4662C5.31621 11.2273 5.31607 10.9699 5.2383 10.7311C5.16054 10.4922 5.00914 10.2841 4.80582 10.1366L1.47718 7.71894C0.546013 7.04109 1.02527 5.56644 2.17644 5.56644H6.29235C6.54334 5.56651 6.78791 5.48717 6.99105 5.33978C7.1942 5.19238 7.3455 4.9845 7.42331 4.74588L8.69578 0.830948L8.69459 0.829759Z" fill="#D7C417"/>
</svg>
