<svg width="21" height="22" viewBox="0 0 21 22" fill="none" xmlns="http://www.w3.org/2000/svg">
<path fill-rule="evenodd" clip-rule="evenodd" d="M7.8482 2.54376C7.8482 2.19302 8.13253 1.90869 8.48327 1.90869H11.8703C12.221 1.90869 12.5054 2.19302 12.5054 2.54376C12.5054 2.8945 12.221 3.17883 11.8703 3.17883H8.48327C8.13253 3.17883 7.8482 2.8945 7.8482 2.54376ZM10.1768 4.87234C6.31866 4.87234 3.19103 7.99997 3.19103 11.8581C3.19103 15.7162 6.31866 18.8438 10.1768 18.8438C14.0349 18.8438 17.1625 15.7162 17.1625 11.8581C17.1625 7.99997 14.0349 4.87234 10.1768 4.87234ZM1.9209 11.8581C1.9209 7.29849 5.61718 3.60221 10.1768 3.60221C14.7364 3.60221 18.4327 7.29849 18.4327 11.8581C18.4327 16.4177 14.7364 20.114 10.1768 20.114C5.61718 20.114 1.9209 16.4177 1.9209 11.8581ZM10.1768 7.83599C10.5275 7.83599 10.8119 8.12032 10.8119 8.47106V11.8581C10.8119 12.2088 10.5275 12.4932 10.1768 12.4932C9.82604 12.4932 9.54171 12.2088 9.54171 11.8581V8.47106C9.54171 8.12032 9.82604 7.83599 10.1768 7.83599Z" fill="#969696"/>
</svg>
