<svg width="24" height="24" viewBox="0 0 24 24" fill="none" xmlns="http://www.w3.org/2000/svg">
<path fill-rule="evenodd" clip-rule="evenodd" d="M12.5327 16.5889L10.3208 18.6443C10.0501 18.8968 9.60945 18.6894 9.63441 18.3198C9.70353 17.2753 9.81105 15.6885 9.88305 14.8062C9.89457 14.667 10.0117 14.5115 10.1231 14.4107C12.7064 12.0683 15.2956 9.73165 17.8837 7.3931C17.9797 7.3067 18.093 7.09358 18.0335 6.98126C17.9663 6.85454 17.6562 6.89294 17.5276 6.97358C14.2405 9.04334 10.9535 11.1121 7.67121 13.1886C7.46961 13.3153 7.22289 13.3461 6.99633 13.2731C5.64273 12.8382 4.28145 12.4264 2.92497 11.9982C2.61297 11.8993 2.24241 11.8014 2.20689 11.4145C2.16945 11.0104 2.51601 10.8184 2.82897 10.6926C4.09041 10.1838 5.36049 9.69709 6.62865 9.2075C11.1906 7.44974 15.7525 5.69294 20.3144 3.93614C20.4671 3.87758 20.6706 3.8411 20.83 3.80942C21.308 3.71342 21.7381 3.95342 21.7852 4.43726C21.8207 4.7915 21.7583 5.18606 21.6844 5.53646C20.734 10.0571 19.7711 14.5758 18.8092 19.0955C18.55 20.3166 17.9221 20.548 16.9112 19.8021C15.6085 18.8401 12.5327 16.5889 12.5327 16.5889Z" fill="white"/>
</svg>
