<svg width="24" height="24" viewBox="0 0 24 24" fill="none" xmlns="http://www.w3.org/2000/svg">
<path fill-rule="evenodd" clip-rule="evenodd" d="M11.8509 9.68506C10.3937 9.68506 9.20801 10.8687 9.20801 12.3251C9.20801 13.7814 10.3937 14.9651 11.8509 14.9651C13.3082 14.9651 14.4929 13.7814 14.4929 12.3251C14.4929 10.8687 13.3082 9.68506 11.8509 9.68506Z" fill="white"/>
<path fill-rule="evenodd" clip-rule="evenodd" d="M16.6693 8.56131C16.1221 8.56131 15.6757 8.11779 15.6757 7.57347C15.6757 7.02723 16.1221 6.58371 16.6693 6.58371C17.2165 6.58371 17.662 7.02723 17.662 7.57347C17.662 8.11779 17.2165 8.56131 16.6693 8.56131ZM11.8501 16.4055C9.59988 16.4055 7.7682 14.5757 7.7682 12.3255C7.7682 10.0752 9.59988 8.24547 11.8501 8.24547C14.1013 8.24547 15.932 10.0752 15.932 12.3255C15.932 14.5757 14.1013 16.4055 11.8501 16.4055ZM16.0482 2.88867H7.9506C4.91796 2.88867 2.87988 5.02179 2.87988 8.19747V15.8199C2.87988 18.9946 4.91796 21.1287 7.9506 21.1287H16.0472C19.0808 21.1287 21.1199 18.9946 21.1199 15.8199V8.19747C21.1199 5.02179 19.0818 2.88867 16.0482 2.88867Z" fill="white"/>
</svg>
