<svg width="24" height="24" viewBox="0 0 24 24" fill="none" xmlns="http://www.w3.org/2000/svg">
<path fill-rule="evenodd" clip-rule="evenodd" d="M14.41 13.5042L14.3111 13.436C14.1105 13.2959 13.8331 13.3141 13.667 13.4792L13.4443 13.7039C13.2119 13.94 12.8462 13.9852 12.5611 13.8143C11.4551 13.148 10.9031 12.5048 10.2129 11.4786C10.0238 11.1964 10.0574 10.8191 10.2945 10.5752L10.5182 10.3448C10.6939 10.1653 10.715 9.89747 10.5719 9.68915C10.4193 9.476 10.2705 9.26192 10.1284 9.05744C10.0459 8.94032 9.91051 8.86352 9.76171 8.85104C9.74923 8.85008 9.73483 8.84912 9.71851 8.84912C9.62827 8.84912 9.49003 8.87408 9.37099 8.99408L9.25099 9.11504L9.24811 9.11792C8.22859 10.1404 9.32971 11.9701 10.7006 13.342C12.0542 14.6908 13.8667 15.7736 14.8862 14.7522L15.0273 14.6197C15.1511 14.494 15.1598 14.326 15.1521 14.2396C15.1444 14.1522 15.107 13.99 14.9428 13.8757C14.7662 13.749 14.5924 13.63 14.41 13.5042Z" fill="white"/>
<path fill-rule="evenodd" clip-rule="evenodd" d="M16.0281 15.6552L15.886 15.7896C15.3292 16.3436 14.6562 16.6172 13.9065 16.6172C12.6508 16.6172 11.1801 15.853 9.68344 14.3612C7.30648 11.9842 6.74872 9.58608 8.22616 8.10288L8.34808 7.98C8.75608 7.57104 9.3244 7.36368 9.88504 7.41648C10.4591 7.4664 10.9775 7.764 11.3087 8.2344C11.4489 8.43696 11.5948 8.64528 11.7503 8.86224C12.2341 9.56304 12.2121 10.476 11.7301 11.1375C12.0748 11.6069 12.3954 11.9535 12.8524 12.2847C13.5167 11.7884 14.4335 11.7672 15.1314 12.253L15.2265 12.3173C15.4175 12.4498 15.5999 12.5746 15.7746 12.7013C16.2364 13.022 16.5349 13.5384 16.5868 14.1106C16.6386 14.6847 16.4341 15.2472 16.0281 15.6552ZM20.9586 10.2687C20.2751 6.63312 17.3721 3.73104 13.7365 3.04944C11.0361 2.5416 8.28952 3.25008 6.1948 4.98768C4.08856 6.73488 2.88184 9.29328 2.88184 12.0082C2.88184 13.3733 3.19288 14.7298 3.80536 16.0364C3.85528 16.1496 3.87064 16.2639 3.8476 16.3695C3.69784 17.0501 3.38392 18.42 3.15736 19.3992C3.06232 19.813 3.18712 20.2354 3.48856 20.5282C3.78712 20.8181 4.20952 20.9324 4.61272 20.8258C5.52568 20.5954 6.77656 20.2892 7.56184 20.1058C7.66456 20.0818 7.77784 20.0962 7.89592 20.1548C9.16216 20.7922 10.582 21.1282 12.0018 21.1282C14.7148 21.1282 17.2722 19.9215 19.0175 17.8181C20.758 15.7224 21.4645 12.9701 20.9586 10.2687Z" fill="white"/>
</svg>
